<?xml version="1.0" encoding="utf-8"?>
<!-- Generator: Adobe Illustrator 21.1.0, SVG Export Plug-In . SVG Version: 6.00 Build 0)  -->
<svg version="1.1" xmlns="http://www.w3.org/2000/svg" xmlns:xlink="http://www.w3.org/1999/xlink" x="0px" y="0px"
	 viewBox="0 0 1266.3 500" style="enable-background:new 0 0 1266.3 500;" xml:space="preserve">
<style type="text/css">
	.st0{fill:#ECF0F1;}
	.st1{font-family:'Monarcha';}
	.st2{font-size:200px;}
	.st3{fill:#C0392B;}
	.st4{fill:none;stroke:#D35400;stroke-width:2;stroke-miterlimit:10;}
	.st5{fill:none;stroke:#D35400;stroke-width:2;stroke-miterlimit:10;stroke-dasharray:9.4686,9.4686,9.4686,9.4686;}
	.st6{fill:none;stroke:#D35400;stroke-width:2;stroke-miterlimit:10;stroke-dasharray:9.4686,9.4686,9.4686,9.4686,9.4686,9.4686;}
	.st7{fill:none;stroke:#D35400;stroke-width:2;stroke-miterlimit:10;stroke-dasharray:9.6,9.6,9.6,9.6;}
	.st8{fill:none;stroke:#D35400;stroke-width:2;stroke-miterlimit:10;stroke-dasharray:9.6,9.6,9.6,9.6,9.6,9.6;}
	.st9{fill:none;stroke:#D35400;stroke-width:2;stroke-miterlimit:10;stroke-dasharray:8.9082,8.9082,8.9082,8.9082;}
	.st10{fill:none;stroke:#D35400;stroke-width:2;stroke-miterlimit:10;stroke-dasharray:8.9082,8.9082,8.9082,8.9082,8.9082,8.9082;}
	.st11{fill:#F1C40F;}
	.st12{font-family:'Monarcha-SemiBoldItalic';}
</style>
<g id="Layer_1">
	<title>logo1</title>
	<text transform="matrix(1 0 0 1 93.8625 304.1998)" class="st0 st1 st2">bookmark</text>
</g>
<g id="Layer_2">
	<polygon class="st3" points="1166.3,400 1066.3,500 1066.3,0 1266.3,0 1266.3,500 	"/>
	<g>
		<polygon class="st3" points="1166.3,347.9 1085.6,428.6 1085.6,25 1247.1,25 1247.1,428.6 		"/>
		<g>
			<polyline class="st4" points="1169.9,351.4 1166.3,347.9 1162.8,351.4 			"/>
			<line class="st5" x1="1156.1" y1="358.1" x2="1132.7" y2="381.5"/>
			<line class="st6" x1="1129.3" y1="384.9" x2="1092.5" y2="421.7"/>
			<polyline class="st4" points="1089.2,425.1 1085.6,428.6 1085.6,423.6 			"/>
			<line class="st7" x1="1085.6" y1="414" x2="1085.6" y2="380.4"/>
			<line class="st8" x1="1085.6" y1="375.6" x2="1085.6" y2="34.8"/>
			<polyline class="st4" points="1085.6,30 1085.6,25 1090.6,25 			"/>
			<line class="st9" x1="1099.5" y1="25" x2="1130.7" y2="25"/>
			<line class="st10" x1="1135.2" y1="25" x2="1237.6" y2="25"/>
			<polyline class="st4" points="1242.1,25 1247.1,25 1247.1,30 			"/>
			<line class="st7" x1="1247.1" y1="39.6" x2="1247.1" y2="73.2"/>
			<line class="st8" x1="1247.1" y1="78" x2="1247.1" y2="418.8"/>
			<polyline class="st4" points="1247.1,423.6 1247.1,428.6 1243.5,425.1 			"/>
			<line class="st5" x1="1236.8" y1="418.4" x2="1213.4" y2="394.9"/>
			<line class="st6" x1="1210" y1="391.6" x2="1173.2" y2="354.8"/>
		</g>
	</g>
	<text transform="matrix(1 0 0 1 1098.241 304.1996)" class="st11 st12 st2">it</text>
</g>
</svg>
