<?xml version="1.0" encoding="utf-8"?>
<!-- Generator: Adobe Illustrator 21.1.0, SVG Export Plug-In . SVG Version: 6.00 Build 0)  -->
<svg version="1.1" id="Layer_1" xmlns="http://www.w3.org/2000/svg" xmlns:xlink="http://www.w3.org/1999/xlink" x="0px" y="0px"
	 viewBox="0 0 704.2 704.2" style="enable-background:new 0 0 704.2 704.2;" xml:space="preserve">
<style type="text/css">
	.st0{stroke:#000000;stroke-width:0.75;stroke-miterlimit:10;}
	.st1{fill:none;stroke:#000000;stroke-width:6;stroke-linecap:round;stroke-linejoin:round;}
	.st2{opacity:0.5;}
</style>
<title>Artboard 1</title>
<g>
	<g id="Capa_1">
		<path id="_Compound_Path_" class="st0" d="M335.8,428.2c-9.9-14.2-29.4-39.7-48.5-50.2c-17-9.3-27.4-2.9-32,1.7l10.2,10.3
			c1.8-1.8,4.4-3.4,10.2-1.4c11.3,3.9,27.3,19.1,44,41.9c11.9,16.3,20,30.6,23.3,38.1c-8.5,1.2-20.6-0.1-33.5-3.9
			c-18-5.2-34.3-14.2-44.9-24.5c-12-11.8-15.6-24.1-10.7-36.6l1.9-4.8l-3.9-3.4c-13.2-11.5-20-24.6-20.1-39.1l-0.3-59.4h-7.2
			c-17-0.3-30.6-14.4-30.3-31.4c0.3-16.6,13.7-30,30.3-30.3h19c7.1,0,11.3,6.2,11.8,12.4c0.1,1.1,0.1,3,0.1,4.9
			c0,9.1,0.1,21.7,6.4,28.8l10.8-9.6c-2.7-3-2.7-14.4-2.7-19.2c0-2.4,0-4.4-0.2-6c-1.2-14.6-12.5-25.7-26.2-25.7h-19
			c-25,0.3-45.1,20.8-44.8,45.8c0.2,21.9,16.1,40.5,37.6,44.2l0.2,45.6c0.1,17.1,7.5,33.2,21.5,46.7c-4.5,16.4,1,33.1,15.7,47.4
			c12.2,11.9,30.8,22.1,50.9,28c10,3.1,20.3,4.7,30.7,4.9c7.2,0,13.5-1,18.5-3.1l3.5-1.5l0.8-3.6c0.6-2.7,0.6-6.7-6.3-19.8
			C347.5,446,341.9,436.9,335.8,428.2z M433.6,401c-7.7-3.2-19.1-4.9-27.9-0.1c-5.4,2.9-9.1,8.2-10,14.2l14.2,2.6
			c0.2-1.7,1.2-3.3,2.7-4.1c3.4-1.9,9.9-1.5,15.5,0.8c19.2,7.9,40.1,38.3,47.2,52.5c-17.6-0.5-45.5-7.4-59.7-19.3
			c-5.3-4.4-8-9-8.1-13.7l-0.1-5.5l-5.3-1.4c-8.6-2.2-34.8-5.5-52.1,5.5l7.8,12.2c10-6.4,26.4-6.1,36.1-4.6
			c1.6,6.7,5.8,12.9,12.5,18.5c17.9,15.1,51.1,22.7,71.3,22.7c2.8,0,5.6-0.2,8.3-0.5l4.9-0.7l1.1-4.9c2.1-9.3-13-30.9-17.7-37.3
			C466.5,427.1,450.8,408.1,433.6,401z M523.9,355.2c-7.6,25-25,45.2-54.7,63.3l-7.5-12.4c21.4-13.1,35.6-27,43.7-43.2
			c-46.1,8.8-107.8,9.5-127,9.5c-44.3,0-87.6-4.9-125.2-14.1l-5-1.2l-0.5-5.1c-0.2-2.5-0.4-5-0.4-7.5c0-27.1,13.9-52.5,39.1-71.4
			c24.6-18.5,57.2-28.6,91.9-28.6c62.7,0,116.6,33.9,128.6,80.7c1.2,0.8,2.4,1.5,3.7,2.1C516.9,330.4,529.8,337,523.9,355.2
			L523.9,355.2z M278.4,349c1.5-13.3,7-27.2,15.8-39.9c8.5-12.3,19.3-22.2,30.1-28v-12.5c-37.1,14.3-62.5,43-62.5,75.8
			c0,0.3,0,0.7,0,1C267.2,346.8,272.7,347.9,278.4,349z M371.1,357.9v-41.6l-39.3-22.7c-16.3,8.4-36.6,32.4-39.1,57.9
			C318.6,355.5,344.8,357.7,371.1,357.9L371.1,357.9z M417.9,280.9V264c-25.9-6.8-53.2-6.8-79.1,0v17l39.6,22.9L417.9,280.9z
			 M468.4,353.6c-3.1-24.8-25.6-51.1-43-60.4l-39.9,23V358C411.1,357.8,441.2,356.5,468.4,353.6L468.4,353.6z M504.1,340.1
			c-4.3-2.2-9.6-4.9-11-10.9c-4.7-19.2-18.6-36.9-39-49.7c-6.9-4.3-14.1-7.9-21.7-10.8v11.9c20.6,11.2,46.6,40.9,50.4,71.4
			c10.2-1.4,19.7-3,28.2-4.9C511.1,343.9,509.1,342.6,504.1,340.1L504.1,340.1z"/>
		<path class="st1" d="M226.6,252.9c-0.3-3.4,2.2-6.3,5.6-6.6c3.4-0.3,6.3,2.2,6.6,5.6c0,0.2,0,0.4,0,0.6"/>
		<g class="st2">
			<path d="M256.2,82.1c4.1-1.4,6.1-2,10.3-3.2c4.8-1.4,5.5-3.6,4.8-6.2l-0.9-3.3c-0.7-2.6-2.6-4.2-7.6-2.8
				c-4.3,1.3-6.5,1.9-10.7,3.3L256.2,82.1z"/>
		</g>
		<path d="M129.2,228.9c-1.7,3-3.4,3.9-5.6,2.7l-43.2-23.3c-4.7,8.8-6.9,13.3-11,22.7c-1.7,4-3.5,5.4-5.8,4.4l-11.2-4.6
			c-2.3-1-2.6-3.3-0.7-7.5c12.9-28.3,29.1-54.9,48.4-79.3c2.7-3.3,4.8-3.9,6.6-2.3l9.2,8c1.9,1.6,1.6,3.7-1,6.8
			c-6,7.2-8.8,11-14.3,18.9l40,28.6c2,1.5,2.1,3.3,0.2,6.1C136.5,216,132.7,222.3,129.2,228.9z"/>
		<path d="M196.9,152.2c-10.5,8-30.5,26-44.1,12.3l-35.9-34.3c-1.8-1.7-1.4-3.8,1.6-6.8c7.3-7.5,11.1-11,18.9-17.8
			c3.1-2.7,5.2-3,6.8-1l29.2,35.2c1.7,2.1,4.2,2.4,11.8-3.4s7.9-8.3,6.4-10.5l-26.3-37.5c-1.4-2.1-0.8-3.9,2.7-6.2
			c8.1-5.5,12.3-8,20.8-12.8c3.5-2,5.6-1.8,6.8,0.4l23.9,43.5C229.3,129.9,207.5,144.1,196.9,152.2z"/>
		<path d="M247.5,120.6c-2.8,1.2-4.6,0.8-5.6-1.4l-27.5-58.8c-1.1-2.3,0.1-4,3.7-5.6C234.3,48,251,42.2,268,37.5
			c10.3-3.2,31.4-5.1,33.2,10.1l0.8,4.5c0.9,5.5-0.5,9.8-6,12.6c10.4-1.1,17.8,3.3,18.9,11.7l2.8,21c0.3,2.5-0.9,3.7-3.9,4.2
			c-7.5,1.1-11.3,1.8-18.8,3.5c-3,0.7-4.6-0.1-5.2-2.5l-3.7-14.8c-0.7-2.9-2.4-3.9-6-2.9c-7.3,1.9-10.9,3-18.1,5.3l6.3,18.6
			c0.8,2.4-0.1,3.8-3,4.8C258.1,116.2,254.5,117.6,247.5,120.6z M256.2,73.1c4.1-1.4,6.1-2,10.3-3.2c4.8-1.4,5.5-3.6,4.8-6.2
			l-0.9-3.3c-0.7-2.6-2.6-4.2-7.6-2.8c-4.3,1.3-6.5,1.9-10.7,3.3L256.2,73.1z"/>
		<path d="M350,98.9c-3.1,0-4.5-1-4.5-3.5l-1.2-49.1c-8.7,0.2-13.1,0.5-21.8,1.3c-3.7,0.3-5.4-0.5-5.7-3l-1.4-12
			c-0.3-2.5,1.3-3.8,5.2-4.1c27.7-2.1,55.5-1.3,83,2.5c3.9,0.6,5.4,2,5,4.5l-2.1,11.9c-0.4,2.5-2.2,3.2-5.9,2.7
			c-8.6-1.3-13-1.8-21.7-2.6l-4.3,48.9c-0.2,2.5-1.7,3.5-4.7,3.2C362,99,358,98.8,350,98.9z"/>
		<path d="M412.8,106c-3-0.7-4.1-2.1-3.5-4.5l14.3-63.3c0.5-2.4,2.5-3.2,6.3-2.2c9.5,2.3,14.3,3.6,23.6,6.5c3.8,1.2,5.1,2.8,4.2,5.2
			l-16.1,46.9c6.9,2.3,10.3,3.6,17.1,6.4l6.3-15c1-2.3,2.9-2.8,6.1-1.3c7.6,3.3,11.4,5.1,18.8,8.9c3.2,1.7,4,3.4,2.8,5.6l-15.2,27.7
			c-1.2,2.2-2.9,2.5-5.7,1.1C452.9,118.5,433.1,111.2,412.8,106z"/>
		<path d="M491.9,139.5c-2.6-1.7-3.2-3.4-1.9-5.5l34.4-55.1c1.3-2.1,3.4-2.2,6.8,0c21,14.1,40.6,30.3,58.3,48.4
			c2.9,3,3.3,5.2,1.5,6.9l-8.6,8c-1.8,1.7-3.8,1.1-6.5-1.7c-10-10.2-20.6-19.9-31.6-28.9l-4.8,6.1c7.7,6,15.1,12.5,22.1,19.4
			c2.7,2.6,3.1,4.6,1.4,6.4l-7.6,7.6c-1.8,1.8-3.7,1.4-6.2-1.1c-6.6-6.5-13.5-12.6-20.8-18.2l-5.3,6.8c10,7.9,19.4,16.5,28.1,25.7
			c2.4,2.5,2.6,4.4,0.8,6.1l-8.6,8c-1.8,1.7-3.6,1.4-5.8-1"/>
		<path d="M552.2,194.4c-2.1-2.6-2.1-4.4-0.2-6l9-7.5c1.9-1.6,3.8-1.1,6,1.7c8.1,10.3,15.4,21.1,22,32.4c1.3,2.2,3,2.7,4.4,1.9
			c2-1.1,2.1-2.8,1-5.1c-3.8-8.3-5.9-12.4-10.3-20.3c-5.3-8.4-10.4-21.3-1-29l8.1-6.7c13.4-9.6,28.1,7.2,34.6,17.5
			c9,14.1,17,28.8,24.1,43.9c1.9,4.2,1.7,6.5-0.6,7.5l-10.9,4.8c-2.3,1-4-0.3-5.8-4.3c-5.5-12-11.7-23.6-18.6-34.8
			c-1.5-2.4-3.4-3.1-4.9-2.1s-1.7,3-0.4,5.4c4.4,8.7,6.5,13.1,10.2,22.3c4,9.7,7.9,24.8-4.3,30.2l-9.7,4c-13.6,4.7-23.4-9.6-29-19.9
			C568.8,217.9,560.8,205.9,552.2,194.4z"/>
		<path d="M67.1,499.7c-2.2-4-2.2-6.4,0-7.6l43.2-23.5c-4.3-8.1-6.3-12.3-10.1-20.9c-1.6-3.7-1.3-5.8,1.1-6.7l11.2-4.6
			c2.3-1,3.9,0.2,5.4,3.6c10.4,22.8,23.6,44.2,39.2,63.7c2.2,2.6,2.4,4.5,0.5,6.1l-9.1,8c-1.9,1.7-3.8,1.2-6.1-1.6
			c-5.6-6.6-8.2-10.1-13.3-17.2l-39.8,28.9c-2,1.5-4.1,0.5-6.6-3.2C77,516.7,71.8,508.2,67.1,499.7z"/>
		<path d="M122,572.1c-3.1-3-3.6-5.2-1.8-6.9l46.3-45.6c1.8-1.8,3.6-1.5,6,0.9c14.9,14,30.5,26.7,48.2,37.1c2.8,1.7,3.5,3.3,2.2,5.5
			l-5.8,10.2c-1.2,2.2-3.1,2.4-6.1,0.6c-11.1-6.6-21.7-13.9-31.8-22l-4.8,6c7.3,5.9,14.9,11.4,22.8,16.5c3,2,3.8,3.7,2.4,5.8
			l-5.7,9.1c-1.3,2.1-3.4,2.2-6.6,0.1c-8.4-5.4-16.5-11.3-24.3-17.6l-5.4,6.7c11.5,8.9,23.4,17.1,35.8,24.8c3.4,2,4.3,3.8,3.1,6
			l-5.8,10.2c-1.2,2.2-3.4,2.3-7,0.2C161.6,606,140.9,590,122,572.1z"/>
		<path d="M231.6,642.7c-9-3.5-13.5-5.4-22.2-9.5c-3.7-1.8-4.9-3.6-3.7-5.8l11.9-23.6c1.8-3.6,5.7-7.2,12.2-11.9
			c8.4-6.1,12.4-9.3,20.2-15.9c1.9-1.7,4.1-1.8,7.4-0.6c10.9,4,21.5,7.3,32.8,10.3c3.2,0.8,5,2.2,5.5,4.7c2.4,9.8,3.8,14.7,7,24.5
			c2.5,7.5,3.5,12.7,2.9,16.7l-4.1,26.1c-0.4,2.5-2.3,3.3-6.4,2.6c-9.7-1.7-14.5-2.7-24.1-5c-4.3-1.1-5.9-2.7-5.2-5.1l3.7-13.5
			c-8.9-2.3-17.6-5.1-26.1-8.3l-4.9,13.1C237.5,643.8,235.4,644.2,231.6,642.7z M251,611.7c8.6,3.1,13,4.5,21.8,6.9
			c-1-6.6-1.4-9.9-2.1-16.4c-0.1-1.1-0.9-2.1-2-2.4l-3.3-1c-1.1-0.3-2.2,0-3,0.8C258,604.5,255.7,606.9,251,611.7L251,611.7z"/>
		<path d="M326.6,664.1c-4.1-0.3-5.8-1.6-5.5-4.1l6.2-64.5c0.2-2.5,1.7-3.4,4.9-3.2c8.2,0.6,12.3,0.8,20.5,0.8
			c2.4-0.2,4.6,0.9,5.9,2.9c4.8,6.4,7.3,9.6,12.7,15.7c1,1.1,1.5,1.6,2.6,1.5l1.2-0.1c1.1-0.1,1.5-0.6,2.3-1.9
			c4.2-6.9,6.2-10.4,9.9-17.5c1-2.2,3-3.6,5.4-3.8c8.2-1.3,12.2-2.1,20.3-4c3.1-0.7,4.7,0,5.4,2.4l16.6,62.8c0.6,2.4-0.8,4-4.8,4.9
			c-9.8,2.3-14.7,3.3-24.7,4.9c-4.2,0.7-6-0.2-6.3-2.7l-5.1-34.8c-2.7,4.8-4.2,7.2-7.2,11.9c-1.5,2.5-3.7,3.6-7.6,4
			c-2.4,0.2-3.6,0.3-6,0.5c-3.9,0.3-6.2-0.5-8.1-2.8c-3.7-4.2-5.5-6.3-9-10.7l0.5,35.2c0,2.5-1.7,3.6-5.8,3.6
			C341.2,665,336.3,664.8,326.6,664.1z"/>
		<path d="M526.8,615.8c-3.5,2.2-5.7,2.2-7,0l-6.3-10.4c-1.3-2.2-0.4-4,3-6c6-3.7,8.9-5.7,14.7-9.7l-19.4-27.3
			c-4.2,3-6.4,4.4-10.7,7.2c-3,1.9-4.9,1.7-6.2-0.4l-6.4-10.3c-1.3-2.1-0.7-3.8,2.1-5.5c10.7-6.8,20.9-14.4,30.4-22.8
			c2.5-2.2,4.3-2.4,6-0.5l33.1,36.5c4.5-4.2,6.8-6.3,11.2-10.7c2.8-2.9,4.9-3.4,6.7-1.7l8.8,8.4c1.8,1.7,1.3,3.9-1.7,7
			C567.2,586.7,547.7,602.3,526.8,615.8z"/>
		<path d="M611.7,538.5c-2.8,3.7-4.8,4.3-6.7,2.8l-9.2-7.4c-2-1.6-1.7-3.7,0.9-7c6.4-8.4,12.4-17.1,17.8-26.1
			c4.4-7.2,4.6-9.9,0.3-12.4l-1.9-1.1c-2.4,6.7-5.7,13.1-9.8,18.9c-6.6,9.4-22.6,32.2-36.7,18.7l-7.2-6.3
			c-14.9-12.4,1.3-34,8.3-45.4s20.2-39.2,38.5-31l30.3,12.5c20.3,8,4.6,37.4-1.5,49.3C627.7,515.9,620,527.4,611.7,538.5z
			 M591.7,475c-1.8-1-3.8-0.5-8.4,6.9c-4.8,7.7-4.3,9.6-2.5,10.8l4.9,3.3c1.7,1.1,3.9,1,8.8-7.1c4.8-7.8,4-10,2.3-11L591.7,475z"/>
	</g>
</g>
</svg>
